<?xml version="1.0" encoding="UTF-8" standalone="no"?>
<svg
   xmlns:dc="http://purl.org/dc/elements/1.1/"
   xmlns:cc="http://creativecommons.org/ns#"
   xmlns:rdf="http://www.w3.org/1999/02/22-rdf-syntax-ns#"
   xmlns:svg="http://www.w3.org/2000/svg"
   xmlns="http://www.w3.org/2000/svg"
   width="32"
   height="32"
   viewBox="0 0 8.4666665 8.4666669"
   version="1.1"
   id="svg8">
  <defs
     id="defs2" />
  <metadata
     id="metadata5">
    <rdf:RDF>
      <cc:Work
         rdf:about="">
        <dc:format>image/svg+xml</dc:format>
        <dc:type
           rdf:resource="http://purl.org/dc/dcmitype/StillImage" />
        <dc:title></dc:title>
      </cc:Work>
    </rdf:RDF>
  </metadata>
  <g
     id="layer1">
    <g
       aria-label="$"
       id="text12"
       style="font-size:10.5833px;line-height:1.25;font-family:Z003;-inkscape-font-specification:Z003;stroke-width:0.264583">
      <path
         d="m 2.0533841,6.781743 c 0.3852334,0.1284112 0.6618113,0.1876779 0.9680225,0.1876779 0.079022,0 0.1876778,-0.00988 0.3259667,-0.019756 L 3.2782288,7.2459987 3.1399399,7.8090322 c 0,0.00988 -0.069144,0.2469445 -0.1185333,0.4445 C 3.2584733,8.1646322 3.31774,8.1448767 3.4362733,8.1053656 L 3.5152956,7.7201321 3.6239511,7.2064876 c 0.00988,-0.029633 0.019756,-0.098778 0.069144,-0.3259668 1.0075335,-0.4543778 1.7088559,-1.3236225 1.7088559,-2.1237227 0,-0.4642556 -0.2173111,-0.7507112 -0.9285113,-1.2149669 0.1778,-0.6914446 0.2469445,-0.9680224 0.493889,-1.9953115 0.2271889,0.00988 0.4445001,0.1580444 0.6321779,0.4346223 L 6.0143739,1.4674974 C 5.8168183,1.2205529 5.5995071,1.1118973 5.3130515,1.1118973 c -0.069145,0 -0.1481667,0 -0.2370667,0.00988 0.059267,-0.24694448 0.069144,-0.32596672 0.1086556,-0.46425564 0.039511,-0.16792226 0.0889,-0.3457223 0.1284111,-0.493889 L 4.8981847,0.2920416 C 4.8784292,0.40069718 4.8685514,0.4895972 4.8586736,0.51923054 4.8290403,0.65751946 4.8092847,0.7859306 4.7796514,0.91434174 L 4.7302625,1.2007974 C 3.8511401,1.4971308 3.1992066,2.2972309 3.1992066,3.0676978 c 0,0.4148667 0.1382889,0.6124223 0.8198557,1.165578 -0.049389,0.1778 -0.079022,0.316089 -0.098778,0.3753556 C 3.8708956,4.8358204 3.811629,5.0728871 3.7523623,5.300076 L 3.5646845,6.0902984 3.4856622,6.426143 C 3.1103066,6.4063874 2.8337287,6.3372429 2.5176398,6.1693207 Z m 2.1336005,-2.0051893 0.0889,-0.3654779 c 0.4642557,0.3457223 0.5630335,0.493889 0.5630335,0.8198558 0,0.3062112 -0.138289,0.6124223 -0.3852335,0.8396113 -0.1778,0.1778 -0.3259667,0.2469445 -0.6519334,0.3457223 C 3.9499179,5.7840873 3.9499179,5.7840873 4.0486957,5.3692205 Z M 4.2264957,3.3936645 C 3.900529,3.1368422 3.7622401,2.8997755 3.7622401,2.5738088 3.7622401,2.3071087 3.900529,2.0008975 4.1079623,1.8132197 4.2462513,1.6848086 4.3746624,1.6255419 4.661118,1.5366419 4.6314847,1.6848086 4.6018513,1.7835864 4.6018513,1.8132197 4.5524624,2.0305309 4.4931958,2.247842 4.4438069,2.4552754 4.4042957,2.6429532 4.3845402,2.7318533 4.2264957,3.3936645 Z"
         style="font-size:9.87778px;fill:#ffff00;stroke-width:0.264583"
         id="path14" />
    </g>
  </g>
</svg>
